<svg width="18" height="18" viewBox="0 0 18 18" fill="none" xmlns="http://www.w3.org/2000/svg">
<path d="M1.62805 6.07318C1.62805 7.29879 5.30488 7.46343 5.30488 9.82318C5.30488 11.2317 4.33537 11.8354 3.01829 11.8354C2.03049 11.8354 1.18902 11.7805 0.47561 11.7256V10.5915C0.47561 10.5915 1.9939 10.7195 2.94512 10.7195C3.45732 10.7195 3.64024 10.5 3.64024 9.95123C3.64024 8.57928 0 8.48782 0 6.2927C0 4.86587 0.987805 4.26221 2.34146 4.26221C3.69512 4.26221 4.2622 4.31709 4.97561 4.37196V5.5244C4.97561 5.5244 3.31098 5.37806 2.41463 5.37806C1.93902 5.37806 1.62805 5.57928 1.62805 6.07318ZM8.39634 6.09148C9.45732 6.09148 9.95122 6.54879 9.95122 7.46343V11.8354H8.52439V7.59148C8.52439 7.40855 8.4878 7.22562 8.26829 7.22562C8.01219 7.22562 7.59146 7.24391 7.11585 7.37196V11.8354H5.68902V4.26221H7.11585V6.31099C7.59146 6.20123 8.01219 6.09148 8.39634 6.09148ZM13.0244 4.26221C13.4268 4.26221 13.7378 4.57318 13.7378 4.97562C13.7378 5.35977 13.4268 5.68904 13.0244 5.68904C12.6402 5.68904 12.3293 5.35977 12.3293 4.97562C12.3293 4.57318 12.6402 4.26221 13.0244 4.26221ZM11.1402 4.39026C11.4695 4.39026 11.7256 4.64635 11.7256 4.97562C11.7256 5.30489 11.4695 5.56099 11.1402 5.56099C10.811 5.56099 10.5366 5.30489 10.5366 4.97562C10.5366 4.64635 10.811 4.39026 11.1402 4.39026ZM14.9268 5.56099C14.5976 5.56099 14.3415 5.30489 14.3415 4.97562C14.3415 4.64635 14.5976 4.39026 14.9268 4.39026C15.2561 4.39026 15.5122 4.64635 15.5122 4.97562C15.5122 5.30489 15.2561 5.56099 14.9268 5.56099ZM9.47561 4.50001C9.73171 4.50001 9.95122 4.71952 9.95122 4.97562C9.95122 5.23172 9.73171 5.45123 9.47561 5.45123C9.21951 5.45123 9 5.23172 9 4.97562C9 4.71952 9.21951 4.50001 9.47561 4.50001ZM16.5915 5.45123C16.3171 5.45123 16.1159 5.23172 16.1159 4.97562C16.1159 4.71952 16.3171 4.50001 16.5915 4.50001C16.8476 4.50001 17.0488 4.71952 17.0488 4.97562C17.0488 5.23172 16.8476 5.45123 16.5915 5.45123ZM8.28658 4.73782C8.43293 4.73782 8.52439 4.84757 8.52439 4.97562C8.52439 5.10367 8.43293 5.21343 8.28658 5.21343C8.15854 5.21343 8.04878 5.10367 8.04878 4.97562C8.04878 4.84757 8.15854 4.73782 8.28658 4.73782ZM17.7622 5.21343C17.6341 5.21343 17.5244 5.10367 17.5244 4.97562C17.5244 4.84757 17.6341 4.73782 17.7622 4.73782C17.8902 4.73782 18 4.84757 18 4.97562C18 5.10367 17.8902 5.21343 17.7622 5.21343ZM11.8537 11.8354H10.4268V6.16465H11.8537V11.8354ZM12.3293 6.16465H13.7378V12.1464C13.7378 13.4634 13.0976 13.7378 12.2561 13.7378C12.1829 13.7378 11.8537 13.7378 11.6159 13.6829V12.9329C12.3293 12.8415 12.3293 12.5854 12.3293 12.2561V6.16465ZM15.6402 11.8354H14.2134V6.16465H15.6402V11.8354Z" fill="white"/>
</svg>
